<?xml version="1.0" standalone="no"?>
<!DOCTYPE svg PUBLIC "-//W3C//DTD SVG 20010904//EN"
 "http://www.w3.org/TR/2001/REC-SVG-20010904/DTD/svg10.dtd">
<svg version="1.0" xmlns="http://www.w3.org/2000/svg"
 width="758.000000pt" height="549.000000pt" viewBox="0 0 758.000000 549.000000"
 preserveAspectRatio="xMidYMid meet">

<g transform="translate(0.000000,549.000000) scale(0.100000,-0.100000)"
fill="#000000" stroke="none">
<path d="M3535 5303 c-26 -152 -23 -148 -83 -151 l-51 -3 -37 116 -38 117 -60
-7 c-98 -12 -96 -8 -96 -140 0 -130 1 -129 -86 -140 l-50 -7 -53 112 -52 111
-32 -6 c-18 -4 -47 -13 -65 -21 -26 -11 -32 -18 -28 -36 3 -13 7 -69 11 -125
l6 -101 -52 -17 c-28 -10 -54 -13 -59 -9 -4 5 -35 51 -69 102 -34 50 -68 92
-76 92 -8 0 -40 -11 -70 -25 -44 -19 -55 -28 -51 -42 3 -10 14 -56 26 -103 12
-47 23 -92 26 -101 3 -11 -13 -24 -56 -44 l-60 -29 -53 60 c-28 32 -65 73 -82
91 l-30 32 -52 -32 c-29 -17 -53 -36 -53 -41 0 -5 19 -58 42 -118 46 -120 47
-110 -23 -152 -25 -15 -27 -13 -116 60 -50 40 -96 74 -103 74 -11 0 -120 -79
-120 -87 0 -3 25 -49 55 -103 30 -54 55 -102 55 -107 0 -14 -54 -63 -71 -63
-8 0 -56 30 -108 66 l-93 66 -49 -48 c-27 -27 -49 -53 -49 -60 0 -6 30 -50 66
-99 74 -97 74 -103 12 -162 l-29 -27 -106 52 c-58 30 -109 50 -113 45 -3 -4
-21 -27 -40 -51 l-33 -44 83 -83 c57 -57 80 -87 75 -96 -5 -8 -23 -35 -42 -61
l-33 -46 -93 33 c-50 18 -99 36 -109 40 -12 5 -25 -9 -53 -59 -20 -36 -35 -70
-33 -75 1 -5 40 -39 85 -76 46 -37 83 -69 83 -71 0 -5 -40 -86 -45 -92 -2 -2
-51 6 -110 18 -60 13 -110 19 -115 14 -16 -16 -61 -147 -53 -154 4 -4 47 -32
95 -63 l87 -56 -16 -46 -15 -47 -47 6 c-168 20 -170 20 -181 -6 -12 -29 -42
-149 -38 -153 2 -1 47 -23 101 -48 l98 -46 -6 -38 c-4 -21 -8 -44 -10 -50 -3
-9 -34 -13 -110 -13 -75 0 -107 -4 -110 -12 -3 -7 -9 -47 -14 -88 -7 -61 -6
-77 5 -86 8 -6 55 -26 105 -44 l90 -32 -3 -36 -3 -37 -99 -17 c-54 -9 -103
-21 -108 -26 -11 -11 -8 -176 3 -186 3 -4 51 -12 105 -19 l99 -12 3 -47 3 -46
-83 -27 c-124 -41 -116 -32 -105 -117 16 -123 11 -118 126 -118 94 0 99 -1
105 -22 13 -50 8 -57 -84 -103 -49 -25 -90 -49 -90 -53 0 -12 29 -112 42 -145
l10 -27 103 0 103 0 11 -32 c13 -37 8 -43 -92 -100 -48 -28 -57 -37 -55 -58
l3 -25 238 -3 c130 -1 237 0 237 3 0 2 -13 33 -29 67 -80 175 -154 433 -187
648 -25 160 -25 518 0 685 52 352 180 690 373 985 317 482 791 834 1341 994
244 71 422 96 682 96 257 0 418 -22 660 -90 898 -254 1575 -1010 1725 -1925
55 -340 43 -651 -40 -992 -24 -102 -102 -328 -135 -393 -10 -19 -21 -45 -24
-57 l-7 -23 259 0 259 0 12 27 c14 30 18 25 -84 93 -44 29 -82 54 -84 56 -1 1
1 15 6 31 l10 28 113 0 114 0 23 80 c13 44 21 85 19 90 -2 6 -47 28 -101 50
l-96 40 6 35 c13 73 6 69 128 72 l112 3 12 80 c7 43 10 81 7 84 -2 3 -50 19
-107 35 l-102 31 -3 47 -3 46 48 10 c26 6 78 16 114 23 66 12 67 13 73 48 11
65 7 131 -8 137 -7 3 -60 8 -117 12 l-104 7 -3 57 -3 57 43 11 c98 26 177 51
181 58 2 4 -1 45 -7 92 l-11 85 -120 5 -119 5 -9 44 c-5 24 -5 47 0 51 4 4 46
22 93 40 132 51 121 37 98 132 -12 46 -24 87 -28 91 -7 7 -39 4 -201 -20 -36
-5 -37 -5 -54 46 -9 29 -15 54 -14 55 2 1 49 27 104 56 55 29 101 54 103 55 4
4 -57 158 -67 168 -4 4 -53 -4 -109 -18 -55 -14 -108 -25 -116 -25 -9 0 -25
18 -36 40 l-20 39 95 73 c52 39 95 76 95 81 0 12 -70 136 -80 142 -4 3 -59
-13 -121 -34 l-114 -40 -17 22 c-37 47 -35 55 51 141 45 45 81 86 81 92 0 6
-23 41 -51 78 -49 65 -51 67 -73 52 -65 -42 -191 -106 -202 -102 -6 2 -24 21
-39 40 l-27 36 58 76 c33 41 67 86 77 99 17 23 17 24 -34 79 -28 31 -55 56
-60 56 -5 0 -51 -31 -103 -70 -51 -38 -97 -70 -102 -70 -5 0 -24 13 -43 29
l-34 28 56 111 c32 61 57 114 57 119 -1 10 -91 80 -115 89 -12 5 -41 -17 -105
-81 l-88 -88 -34 23 c-73 51 -71 38 -27 168 21 64 39 119 39 123 0 10 -110 71
-120 67 -5 -2 -118 -136 -157 -187 -2 -3 -26 6 -53 19 -59 27 -58 24 -30 170
11 58 20 108 20 111 0 7 -106 49 -123 49 -7 0 -43 -48 -81 -105 -38 -58 -72
-105 -76 -105 -4 0 -24 7 -44 15 l-37 16 7 129 7 129 -28 11 c-16 6 -47 13
-69 16 l-41 6 -45 -112 c-24 -62 -50 -114 -56 -117 -6 -2 -35 2 -65 10 l-54
13 -3 127 c-3 142 4 131 -92 142 l-56 7 -37 -122 -38 -123 -67 7 c-36 4 -68 8
-70 10 -3 4 -42 222 -42 237 0 5 -31 9 -69 9 l-69 0 -17 -97z"/>
<path d="M3460 4724 c-141 -38 -234 -148 -255 -299 -3 -28 -12 -84 -20 -125
-7 -41 -18 -113 -24 -160 -6 -47 -25 -191 -41 -320 -17 -129 -35 -262 -40
-296 -11 -70 -13 -124 -4 -124 4 0 33 10 66 21 42 16 59 28 62 43 3 12 17 170
32 351 14 182 30 334 34 338 4 5 22 1 40 -8 17 -9 34 -14 38 -11 3 3 -9 26
-27 51 -44 62 -61 116 -61 199 0 89 28 154 92 213 57 52 88 68 162 83 113 23
217 -11 296 -96 64 -69 82 -116 89 -225 l6 -95 120 -114 c66 -63 183 -176 260
-251 257 -249 234 -231 282 -225 24 3 59 13 80 21 l37 16 -371 372 c-302 304
-373 380 -387 417 -40 105 -122 188 -219 222 -63 21 -171 22 -247 2z"/>
<path d="M3515 4631 c-52 -13 -91 -39 -132 -85 -87 -99 -85 -237 4 -336 46
-51 125 -90 182 -90 87 0 191 64 234 144 30 58 31 174 0 232 -25 47 -82 101
-128 120 -42 17 -122 25 -160 15z m130 -111 c26 -13 49 -34 63 -59 77 -137
-62 -289 -202 -221 -80 38 -113 124 -78 202 39 89 128 121 217 78z"/>
<path d="M3811 4153 c-17 -21 -31 -41 -31 -45 0 -8 72 -68 82 -68 16 0 78 63
78 80 0 22 -55 70 -80 70 -10 0 -32 -17 -49 -37z"/>
<path d="M3436 4082 c-3 -5 -28 -125 -56 -268 -28 -142 -54 -269 -57 -281 -4
-18 1 -24 36 -34 23 -7 43 -10 45 -8 4 4 82 398 92 465 3 23 10 47 14 54 9 15
11 14 296 -231 281 -241 458 -389 466 -389 7 0 48 121 48 141 0 5 -12 14 -27
20 -22 8 -30 7 -40 -7 -11 -15 -15 -15 -30 -3 -54 43 -508 433 -510 438 -2 3
11 14 27 23 35 20 38 38 10 63 -18 17 -27 17 -84 7 -90 -17 -171 -15 -186 3
-14 16 -36 20 -44 7z"/>
<path d="M3935 4055 c-15 -14 -25 -31 -23 -38 2 -7 66 -69 143 -137 77 -69
179 -165 227 -213 90 -92 92 -93 134 -55 l22 20 -224 221 c-124 122 -231 223
-239 225 -8 2 -26 -8 -40 -23z"/>
<path d="M3533 3703 c-55 -235 -57 -243 -44 -243 6 0 26 -14 46 -31 20 -18 38
-29 41 -26 7 6 66 220 87 311 l16 68 -46 49 c-25 27 -49 49 -52 49 -4 0 -25
-80 -48 -177z"/>
<path d="M4479 3600 c-41 -21 -96 -80 -110 -117 -15 -40 -10 -125 10 -168 66
-142 256 -168 360 -50 92 105 53 279 -74 336 -53 24 -139 24 -186 -1z m167
-79 c35 -21 64 -75 64 -118 0 -61 -59 -121 -127 -129 -100 -13 -176 104 -128
197 34 64 128 89 191 50z"/>
<path d="M3285 3438 c-82 -29 -135 -105 -135 -196 0 -64 13 -98 53 -141 86
-91 212 -94 301 -8 110 106 76 282 -66 341 -42 18 -108 20 -153 4z m149 -89
c86 -67 70 -187 -31 -225 -41 -16 -50 -16 -86 -3 -102 35 -118 184 -25 235 37
21 111 17 142 -7z"/>
<path d="M4259 3242 c-111 -72 -191 -173 -218 -277 -6 -26 -7 -133 -3 -309 l7
-270 27 -7 c17 -4 31 -3 36 4 12 16 26 225 27 417 1 136 4 161 23 203 33 72
68 113 138 159 35 23 64 46 64 50 0 21 -25 58 -40 58 -9 0 -36 -13 -61 -28z"/>
<path d="M3005 3210 c-27 -9 -89 -36 -137 -58 -129 -62 -177 -123 -259 -329
-16 -40 -62 -140 -104 -223 l-75 -151 27 -24 c16 -13 33 -25 40 -25 28 0 87
113 149 288 72 205 115 285 177 331 64 47 125 79 197 101 64 20 78 37 65 76
-12 34 -19 35 -80 14z"/>
<path d="M4411 3153 c-5 -10 -12 -35 -16 -55 -7 -35 -6 -38 30 -52 55 -23 61
-21 74 28 16 64 14 73 -16 80 -16 4 -36 9 -45 12 -10 3 -21 -3 -27 -13z"/>
<path d="M4634 3140 c-15 -6 -28 -30 -46 -87 -13 -43 -89 -282 -168 -532
l-144 -454 28 -24 c16 -13 32 -21 37 -16 11 12 55 131 205 568 74 215 146 421
159 458 34 92 33 97 -12 96 -21 0 -47 -4 -59 -9z"/>
<path d="M3096 3037 c-15 -19 -26 -38 -26 -44 0 -10 54 -53 68 -53 4 0 22 15
40 33 l32 33 -33 32 c-18 18 -38 32 -44 32 -7 0 -23 -15 -37 -33z"/>
<path d="M4370 2995 c0 -2 -27 -102 -61 -222 -161 -576 -160 -567 -100 -561
18 2 28 13 38 43 21 59 223 703 223 710 0 3 -16 13 -35 21 -34 14 -65 18 -65
9z"/>
<path d="M3159 2833 c-249 -294 -611 -724 -628 -746 -12 -15 -11 -20 4 -37 10
-11 24 -20 31 -20 13 0 157 152 364 385 137 153 334 368 407 445 29 30 53 58
53 62 0 6 -92 58 -103 58 -2 0 -59 -66 -128 -147z"/>
<path d="M2997 2908 c-19 -24 -123 -158 -232 -298 -109 -140 -216 -276 -238
-303 -41 -49 -42 -68 -8 -87 18 -9 45 20 293 317 150 180 277 335 282 345 6
13 1 23 -20 42 -16 14 -32 26 -36 26 -4 0 -22 -19 -41 -42z"/>
<path d="M2366 2371 l-28 -29 38 -26 39 -26 30 30 30 30 -30 25 c-39 31 -46
31 -79 -4z"/>
<path d="M4024 2317 c-3 -8 -4 -28 -2 -44 2 -23 9 -29 32 -31 16 -2 32 2 37
10 13 20 11 68 -3 68 -7 0 -23 3 -35 6 -15 4 -25 1 -29 -9z"/>
<path d="M2411 2183 c-36 -44 -36 -58 0 -80 26 -16 27 -15 65 27 22 23 40 45
42 49 3 8 -51 41 -66 41 -6 0 -24 -17 -41 -37z"/>
<path d="M4135 2144 c-7 -41 3 -54 46 -54 23 0 28 5 34 36 7 41 -3 54 -46 54
-23 0 -28 -5 -34 -36z"/>
<path d="M2256 2050 c-86 -26 -145 -146 -111 -227 57 -137 218 -170 308 -64
118 141 -20 344 -197 291z m145 -71 c59 -41 60 -153 3 -198 -59 -47 -160 -35
-194 22 -28 44 -27 116 2 152 43 55 130 67 189 24z"/>
<path d="M4030 2011 c-44 -24 -75 -66 -90 -120 -22 -81 26 -166 115 -207 45
-21 59 -23 94 -15 88 20 143 82 149 172 8 112 -67 189 -183 188 -29 0 -65 -8
-85 -18z m160 -46 c63 -33 81 -138 34 -194 -33 -39 -94 -57 -144 -42 -56 17
-83 52 -88 116 -4 53 -3 56 36 95 35 35 45 40 86 40 26 0 60 -7 76 -15z"/>
<path d="M2577 1893 c-3 -5 -8 -29 -12 -54 l-7 -47 58 -22 c50 -18 219 -70
230 -70 5 0 34 57 34 68 0 11 -32 26 -113 53 -34 12 -88 34 -120 50 -66 32
-64 32 -70 22z"/>
<path d="M4372 1823 c-14 -61 -11 -63 128 -107 165 -53 157 -52 177 -11 20 42
18 44 -57 71 -25 9 -81 32 -125 51 -118 51 -110 51 -123 -4z"/>
<path d="M2046 1841 c-11 -18 22 -110 53 -150 60 -75 175 -119 244 -92 41 16
24 31 -35 31 -32 0 -68 8 -95 21 -56 27 -121 102 -136 156 -11 42 -20 52 -31
34z"/>
<path d="M3845 1821 c-9 -16 11 -87 38 -134 56 -95 196 -155 269 -116 29 16 6
29 -52 29 -88 0 -210 101 -226 186 -7 36 -19 51 -29 35z"/>
<path d="M2925 1730 c-20 -39 -19 -45 12 -59 25 -12 30 -10 50 14 31 35 29 51
-8 64 -18 6 -33 11 -35 11 -2 0 -10 -13 -19 -30z"/>
<path d="M4735 1700 c-21 -40 -19 -49 12 -61 24 -9 31 -7 50 16 31 35 29 51
-8 64 -18 6 -33 11 -35 11 -2 0 -10 -13 -19 -30z"/>
<path d="M3062 1677 c-34 -35 -42 -50 -42 -80 l0 -37 154 0 c131 0 155 2 160
16 13 34 6 54 -21 60 -63 13 -128 37 -164 60 -21 13 -40 24 -42 24 -1 0 -22
-19 -45 -43z"/>
<path d="M2476 1668 c-40 -47 -44 -67 -18 -91 16 -15 48 -17 238 -17 227 0
244 3 244 41 0 18 -21 22 -215 39 -88 8 -113 13 -125 29 -17 22 -52 41 -74 41
-8 0 -31 -19 -50 -42z"/>
<path d="M4872 1647 c-34 -35 -42 -50 -42 -80 l0 -37 155 0 c142 0 155 2 165
19 5 11 7 26 4 35 -6 16 -10 17 -84 36 -25 6 -69 25 -97 41 -29 16 -54 29 -56
29 -1 0 -22 -19 -45 -43z"/>
<path d="M4281 1635 c-46 -50 -47 -52 -25 -83 15 -22 19 -22 249 -22 225 0
234 1 240 20 10 31 1 37 -67 43 -230 23 -251 28 -285 58 -19 16 -42 29 -52 29
-10 0 -37 -20 -60 -45z"/>
<path d="M1532 1443 c3 -17 110 -18 2068 -18 1958 0 2065 1 2068 18 3 16 -101
17 -2068 17 -1967 0 -2071 -1 -2068 -17z"/>
<path d="M3937 1236 c-51 -19 -75 -42 -88 -87 -10 -31 -9 -43 7 -75 25 -49 56
-71 129 -90 33 -9 68 -23 78 -31 45 -41 -1 -99 -76 -96 -32 2 -48 10 -79 40
l-39 38 -25 -30 -24 -30 34 -32 c59 -55 161 -67 236 -28 64 33 82 135 33 184
-27 26 -85 53 -145 65 -35 8 -58 32 -58 60 0 34 31 56 79 56 34 0 49 -6 73
-31 l31 -31 26 27 26 26 -32 29 c-31 28 -88 50 -128 50 -11 -1 -37 -7 -58 -14z"/>
<path d="M1970 1021 l0 -221 35 0 34 0 3 148 3 147 54 -82 c46 -70 58 -83 82
-83 23 0 35 13 83 86 l56 87 0 -152 0 -151 34 0 c26 0 35 5 40 23 3 12 6 111
6 220 l0 197 -37 0 c-37 0 -39 -2 -106 -110 -38 -61 -71 -110 -75 -110 -4 0
-36 49 -72 108 -63 103 -67 107 -103 110 l-37 3 0 -220z"/>
<path d="M2870 1020 l0 -220 35 0 34 0 3 148 3 147 55 -82 c46 -71 58 -83 82
-83 23 0 35 12 80 82 l53 83 3 -148 3 -147 33 0 c22 0 36 6 40 16 3 9 6 108 6
220 l0 204 -37 0 c-37 -1 -39 -3 -106 -111 -49 -79 -72 -107 -80 -100 -7 5
-39 55 -72 110 -59 98 -61 100 -97 101 l-38 0 0 -220z"/>
<path d="M3459 1043 c-104 -268 -98 -245 -54 -241 33 3 39 8 54 43 26 66 25
65 116 65 l84 0 19 -52 c19 -51 21 -53 61 -56 l41 -3 -20 53 c-11 29 -49 127
-83 218 l-63 165 -39 3 -40 3 -76 -198z m141 25 c13 -35 25 -69 27 -75 4 -10
-11 -13 -55 -13 l-60 0 26 75 c15 41 30 75 33 75 4 0 17 -28 29 -62z"/>
<path d="M4210 1205 l0 -35 60 0 60 0 0 -185 0 -185 35 0 35 0 2 183 3 182 60
5 c59 5 60 5 63 38 l3 32 -160 0 -161 0 0 -35z"/>
<path d="M4610 1020 l0 -220 140 0 140 0 0 30 0 29 -102 3 -103 3 0 60 0 60
85 5 85 5 0 30 0 30 -87 3 -88 3 0 54 0 54 103 3 102 3 3 33 3 32 -140 0 -141
0 0 -220z"/>
<path d="M4990 1020 l0 -220 34 0 c41 0 46 10 46 96 l0 65 47 -3 48 -3 43 -77
44 -78 45 0 44 0 -32 58 c-18 31 -40 69 -48 83 -14 25 -13 28 17 58 54 54 60
122 17 188 -27 40 -73 53 -195 53 l-110 0 0 -220z m237 128 c32 -30 30 -71 -4
-98 -22 -17 -38 -20 -87 -18 l-61 3 -3 68 -3 67 67 0 c56 0 72 -4 91 -22z"/>
<path d="M2585 1156 c-70 -31 -109 -95 -109 -176 0 -137 105 -214 239 -176 60
18 73 33 56 65 l-11 20 -41 -21 c-80 -41 -166 5 -176 94 -13 113 84 183 176
127 l34 -20 20 20 c16 16 18 23 8 35 -35 42 -136 59 -196 32z"/>
<path d="M2834 550 c-31 -12 -72 -66 -80 -105 -13 -70 43 -154 104 -156 99 -4
152 42 152 133 0 97 -90 163 -176 128z m109 -59 c10 -10 21 -37 24 -59 5 -36
2 -45 -25 -72 -45 -45 -101 -40 -127 11 -51 97 53 194 128 120z"/>
<path d="M3089 531 c-16 -16 -29 -38 -29 -49 0 -33 35 -65 86 -82 37 -11 50
-20 52 -37 3 -17 -4 -26 -23 -33 -22 -8 -34 -6 -66 12 -30 17 -42 19 -51 10
-16 -16 15 -49 58 -61 38 -10 95 1 113 23 19 22 23 70 9 89 -8 10 -38 26 -68
36 -57 19 -72 39 -50 66 16 20 49 19 71 -1 21 -19 49 -12 49 10 0 20 -51 46
-90 46 -21 0 -41 -9 -61 -29z"/>
<path d="M4511 543 c-46 -23 -75 -88 -66 -146 13 -72 71 -116 145 -108 65 7
110 61 110 132 0 106 -96 168 -189 122z m94 -33 c32 -12 59 -71 50 -111 -14
-64 -95 -90 -140 -44 -44 43 -27 132 29 155 28 12 31 12 61 0z"/>
<path d="M2300 420 l0 -130 85 0 c78 0 85 2 85 20 0 16 -8 19 -62 22 -63 3
-63 3 -66 36 l-3 32 56 0 c53 0 56 1 53 23 -3 19 -10 22 -55 25 -51 3 -53 4
-53 33 l0 29 65 0 c58 0 65 2 65 20 0 18 -7 20 -85 20 l-85 0 0 -130z"/>
<path d="M2516 538 c5 -7 23 -34 41 -59 18 -26 33 -49 33 -53 0 -4 -18 -34
-40 -66 -22 -32 -40 -61 -40 -64 0 -4 10 -6 23 -6 15 0 30 13 50 45 16 25 32
45 36 45 4 0 22 -20 40 -45 23 -33 39 -45 57 -45 29 0 29 0 -28 78 l-39 52 41
59 c22 33 40 62 40 65 0 4 -10 6 -22 6 -16 -1 -33 -15 -55 -47 l-32 -46 -28
46 c-23 38 -33 47 -56 47 -20 0 -26 -4 -21 -12z"/>
<path d="M3300 420 c0 -123 1 -130 20 -130 16 0 21 9 26 50 6 42 27 82 38 69
1 -2 22 -30 46 -61 31 -42 49 -58 66 -58 13 0 24 3 24 6 0 3 -19 31 -43 62
-24 31 -47 63 -51 70 -6 10 9 31 45 68 l53 54 -29 0 c-22 0 -43 -14 -87 -57
l-58 -57 0 57 c0 54 -1 57 -25 57 l-25 0 0 -130z"/>
<path d="M3572 423 l3 -128 83 -3 c77 -3 82 -2 82 18 0 18 -6 20 -60 20 l-60
0 0 35 0 35 50 0 c47 0 50 2 50 25 0 23 -3 25 -50 25 -49 0 -50 1 -50 30 l0
30 60 0 c53 0 60 2 60 20 0 18 -7 20 -85 20 l-86 0 3 -127z"/>
<path d="M3800 420 l0 -130 85 0 c78 0 85 2 85 20 0 16 -8 19 -57 22 l-58 3
-3 108 c-3 106 -3 107 -27 107 l-25 0 0 -130z"/>
<path d="M4030 420 l0 -130 85 0 c78 0 85 2 85 20 0 18 -7 20 -65 20 l-65 0 0
34 0 35 53 3 c44 3 52 6 52 23 0 17 -8 20 -52 23 -51 3 -53 4 -53 32 0 29 1
29 62 32 50 2 63 6 66 21 3 15 -6 17 -82 17 l-86 0 0 -130z"/>
<path d="M4232 533 c2 -13 14 -19 41 -21 l37 -3 0 -110 c0 -102 1 -109 20
-109 19 0 20 7 20 109 l0 110 37 3 c27 2 39 8 41 21 3 15 -7 17 -98 17 -91 0
-101 -2 -98 -17z"/>
<path d="M4750 419 c0 -130 0 -130 23 -127 21 3 22 7 20 92 -1 103 -4 104 90
-19 32 -43 62 -71 75 -73 22 -3 22 -2 22 127 l0 131 -25 0 c-24 0 -24 -2 -27
-87 l-3 -87 -65 87 c-48 65 -70 87 -87 87 -23 0 -23 -1 -23 -131z"/>
</g>
</svg>
