<?xml version="1.0" encoding="utf-8"?>
<!-- Generator: Adobe Illustrator 16.0.0, SVG Export Plug-In . SVG Version: 6.00 Build 0)  -->
<!DOCTYPE svg PUBLIC "-//W3C//DTD SVG 1.1//EN" "http://www.w3.org/Graphics/SVG/1.1/DTD/svg11.dtd">
<svg version="1.1" xmlns="http://www.w3.org/2000/svg" xmlns:xlink="http://www.w3.org/1999/xlink" x="0px" y="0px"
	 width="863.998px" height="864px" viewBox="0 0 863.998 864" enable-background="new 0 0 863.998 864" xml:space="preserve">
<g id="Background" display="none">
	<rect display="inline" fill="#292326" width="863.998" height="864"/>
</g>
<g id="MES_Logo">
	<path fill="#A71D30" d="M91.732,504.514c-24.027,0-43.503,19.477-43.503,43.501c0,24.027,19.477,43.506,43.503,43.506
		c24.027,0,43.504-19.479,43.504-43.506C135.237,523.991,115.76,504.514,91.732,504.514z M118.343,571.292
		c1.05-2.737,1.628-5.71,1.628-8.814c0-13.581-11.01-24.591-24.592-24.591c-13.583,0-24.593,11.01-24.593,24.591
		c0,13.131,10.29,23.858,23.244,24.556c-1.362,0.171-2.752,0.26-4.161,0.26c-18.408,0-33.33-14.922-33.33-33.33
		s14.922-33.327,33.33-33.327c18.406,0,33.328,14.919,33.328,33.327C123.197,560.309,121.423,566.244,118.343,571.292z"/>
	<path fill="#A71D30" d="M187.144,488.866c-0.002,0.203-0.006,0.405-0.008,0.608c-0.002,0.268-0.004,0.539-0.007,0.807
		c-0.002,0.541-0.005,1.082-0.007,1.621c0,1.896,0,3.79-0.001,5.684c0.003,0.54,0.005,1.081,0.007,1.623
		c0.003,0.338,0.005,0.676,0.007,1.013c0.002,0.27,0.006,0.539,0.008,0.809c-0.04,0.538-0.081,1.074-0.012,1.613
		c-0.227,3.531-0.632,7.04-1.198,10.532c-1.006,6.202-2.562,12.259-4.72,18.153c-2.512,6.864-5.771,13.35-9.873,19.401
		c-2.728,4.024-5.766,7.801-9.23,11.221c-0.214,0.213-0.448,0.405-0.672,0.608c-0.216,0.042-0.303-0.048-0.259-0.261
		c2.201-3.578,3.438-7.522,4.427-11.563c0.819-3.34,1.41-6.725,1.898-10.13c0.469-3.272,0.83-6.557,1.097-9.847
		c0.234-2.89,0.458-5.782,0.512-8.682c0.015-0.776-0.008-1.555-0.065-2.324c-0.185-2.455-0.35-4.911-0.606-7.358
		c-0.37-3.518-0.894-7.018-1.566-10.497c-1.204-6.232-2.894-12.329-5.146-18.268c-2.689-7.084-6.139-13.785-10.181-20.188
		c-3.442-5.449-7.248-10.642-11.183-15.741c-3.851-4.993-7.744-9.955-11.56-14.973c-4.105-5.396-7.925-10.989-11.336-16.857
		c-6.32-10.874-10.753-22.469-13.35-34.771c-0.991-4.686-1.726-9.411-2.255-14.172c-0.61-5.501-0.927-11.019-0.885-16.553
		c0.064-8.557,0.95-17.022,2.969-25.354c2.812-11.608,7.591-22.307,14.814-31.859c6.151-8.136,13.56-14.884,22.35-20.086
		c0.549-0.327,1.122-0.615,1.682-0.919c0.103-0.127,0.298-0.077,0.397-0.211l-0.002,0.001c0.217-0.119,0.395-0.154,0.393,0.188
		l-0.009,0.006c-0.04,0.078-0.102,0.13-0.187,0.153c-5.44,4.543-9.52,10.166-12.92,16.319c-3.509,6.353-6.011,13.099-7.71,20.145
		c-0.949,3.938-1.614,7.921-2.06,11.948c-0.581,5.24-0.717,10.495-0.5,15.755c0.215,5.258,0.81,10.48,1.693,15.673
		c0.85,4.991,1.989,9.908,3.566,14.721c2.48,7.574,5.962,14.661,10.297,21.339c3.419,5.27,7.266,10.22,11.31,15.019
		c3.781,4.486,7.615,8.926,11.389,13.418c4.209,5.011,8.181,10.207,11.729,15.715c6.244,9.695,10.724,20.146,13.473,31.341
		c1.328,5.406,2.268,10.884,2.885,16.417c0.243,2.178,0.427,4.359,0.591,6.545c0.003,0.403,0.006,0.807,0.008,1.21
		C187.139,488.195,187.142,488.532,187.144,488.866"/>
	<path fill="#A71D30" d="M101.147,311.862c-0.522,1.67-1.054,3.34-1.565,5.015c-1.877,6.163-3.475,12.396-4.666,18.729
		c-0.798,4.243-1.403,8.513-1.663,12.827c-0.069,1.144-0.083,2.291-0.1,3.438c-0.005,0.387-0.092,0.705-0.363,1.006
		c-4.28,4.8-7.542,10.253-10.206,16.077c-2.846,6.228-4.781,12.737-5.913,19.488c-0.162,0.964-0.251,1.932-0.266,2.915
		c-0.065,4.417-0.176,8.833-0.107,13.25c0.016,1.107,0.072,2.215,0.11,3.34c0.36-0.06,0.349-0.338,0.428-0.537
		c1.922-4.859,3.926-9.683,6.065-14.45c1.684-3.753,3.437-7.473,5.434-11.072c0.688-1.238,1.4-2.462,2.202-3.63
		c0.381-0.554,0.783-1.099,1.195-1.632c0.373-0.479,0.791-0.92,1.269-1.3c0.128-0.101,0.255-0.231,0.443-0.141
		c0.157,0.077,0.102,0.233,0.119,0.358c0.012,0.1,0.008,0.202,0.01,0.303c0.037,2.667,0.285,5.317,0.659,7.958
		c0.255,1.803,0.608,3.587,1.109,5.34c0.379,1.332,0.849,2.629,1.493,3.859c0.256,0.488,0.247,0.495-0.109,0.86
		c-0.87,0.895-1.757,1.771-2.606,2.686c-3.45,3.717-6.582,7.681-9.187,12.042c-1.438,2.407-2.674,4.913-3.553,7.584
		c-0.841,2.553-1.314,5.158-1.114,7.859c0.07,0.944,0.219,1.879,0.514,2.776c1.062,3.234,2.179,6.45,3.552,9.57
		c0.312,0.709,0.67,1.398,1.029,2.084c0.169,0.325,0.347,0.655,0.656,0.877c0.367-0.095,0.544-0.404,0.774-0.64
		c3.363-3.412,6.824-6.72,10.467-9.833c2.41-2.06,4.887-4.037,7.568-5.742c1.083-0.688,2.194-1.323,3.38-1.819
		c0.216-0.093,0.441-0.165,0.661-0.25c0.215-0.086,0.394-0.044,0.53,0.146c0.193,0.276,0.386,0.553,0.577,0.832
		c3.586,5.187,7.25,10.318,11.203,15.235c0.612,0.763,1.25,1.502,1.929,2.208c1.455,1.507,2.734,3.163,4,4.826
		c3.72,4.883,7.209,9.933,10.628,15.029c2.403,3.584,4.768,7.194,6.995,10.891c0.469,0.779,0.906,1.581,1.348,2.374
		c0.094,0.168,0.236,0.338,0.09,0.601c-0.357-0.089-0.61-0.362-0.883-0.58c-0.815-0.653-1.617-1.327-2.426-1.988
		c-6.86-5.598-14.319-10.206-22.497-13.628c-5.553-2.326-11.292-4.032-17.216-5.094c-3.188-0.571-6.401-0.928-9.637-1.122
		c-3.542-0.212-7.079-0.171-10.613,0.066c-2.556,0.174-5.102,0.469-7.631,0.886c-0.033,0.004-0.066,0.013-0.099,0.017
		c-1.448,0.21-1.185,0.33-1.779-0.966c-1.935-4.206-3.401-8.582-4.633-13.037c-1.339-4.848-2.327-9.771-3.001-14.752
		c-0.466-3.441-0.767-6.899-0.945-10.371c-0.151-2.966-0.168-5.932-0.106-8.899c0.075-3.606,0.345-7.204,0.741-10.792
		c0.89-8.066,2.577-15.964,4.936-23.723c0.725-2.385,1.519-4.75,2.391-7.087c0.129-0.347,0.284-0.687,0.462-1.009
		c7.799-14.33,15.604-28.658,23.675-42.84c1.117-1.96,2.272-3.903,3.415-5.851c0.17-0.29,0.368-0.563,0.552-0.842
		C101.096,311.546,101.203,311.622,101.147,311.862"/>
	<path fill="#A71D30" d="M22.596,505.478c-0.216-0.119-0.191-0.329-0.202-0.53c-0.033-0.637,0.094-1.277-0.021-1.912
		c0.089-1.654,0.179-3.308,0.263-4.963c0.008-0.164-0.017-0.33-0.027-0.493c0.047-0.366,0.107-0.733,0.137-1.101
		c0.298-3.895,0.56-7.794,0.896-11.687c0.34-3.959,0.745-7.912,1.139-11.867c0.341-3.418,0.68-6.837,1.071-10.249
		c0.311-2.71,0.668-5.416,1.058-8.115c0.627-4.333,1.348-8.649,2.135-12.958c1.016-5.563,2.132-11.109,3.348-16.635
		c0.89-4.042,1.82-8.078,2.737-12.116c0.052-0.23,0.132-0.452,0.199-0.677c0.577,0.051,0.132,0.619,0.416,0.819
		c0.268,1.112,0.518,2.23,0.81,3.338c0.987,3.755,2.347,7.381,3.901,10.936c0.065,0.15,0.154,0.292,0.23,0.436
		c0.254-0.126,0.251-0.343,0.282-0.529c1.639-9.604,4.442-18.879,7.853-27.984c3.408-9.102,7.417-17.932,11.998-26.504
		c0.253-0.473,0.533-0.931,0.801-1.398c0.523,0.049,0.297,0.38,0.241,0.645c-0.23,1.225-0.452,2.45-0.691,3.672
		c-0.758,3.869-1.419,7.753-1.989,11.657c-0.434,2.967-0.806,5.943-1.117,8.924c-0.197,1.878-0.323,3.762-0.485,5.642
		c-0.341,3.965-0.457,7.942-0.478,11.919c-0.015,2.695,0.042,5.392,0.199,8.086c0.127,2.188,0.279,4.373,0.513,6.551
		c0.726,6.788,1.972,13.467,4.221,19.931c0.944,2.709,2.048,5.349,3.514,7.825c0.202,0.344,0.186,0.452-0.082,0.556
		c-1.989,0.77-3.841,1.806-5.676,2.874c-2.243,1.302-4.454,2.663-6.678,3.997c-0.229,0.138-0.464,0.265-0.682,0.389
		c-0.264-0.17-0.253-0.424-0.292-0.647c-0.361-2.059-0.614-4.137-0.813-6.216c-0.258-2.682-0.503-5.367-0.73-8.056
		c-0.181-2.147-0.337-4.3-0.482-6.451c-0.256-3.835-0.504-7.668-0.742-11.502c-0.121-1.953-0.208-3.905-0.32-5.859
		c-0.037-0.637-0.103-1.276-0.156-1.913c-0.256-0.951,0.059-1.936-0.171-2.887c-0.031-0.131,0.005,0.062-0.074-0.044
		c-0.021-0.027-0.118,0.035-0.163,0.093v-0.002c-0.212,0.238,0.008,0.575-0.186,0.816c-0.385,1.469-0.591,2.973-0.808,4.471
		c-1.125,7.76-1.346,15.567-1.235,23.391c0.06,4.248,0.249,8.487,0.573,12.724c0.128,1.677,0.277,3.355,0.417,5.033
		c0.011,0.135,0.016,0.269,0.026,0.402c0.015,0.188-0.064,0.324-0.222,0.416c-1.414,0.826-2.536,1.998-3.689,3.131
		c-1.686,1.651-3.277,3.393-4.861,5.14c-0.218,0.242-0.392,0.543-0.709,0.673c-0.061-0.067-0.135-0.11-0.141-0.161
		c-0.417-4.161-0.617-8.331-0.71-12.509c-0.151-0.358-0.076-0.731-0.076-1.099c-0.006-6.725-0.003-13.449-0.006-20.175
		c0-0.369,0.086-0.762-0.082-1.095c-0.118-0.231-0.121,0.102-0.214,0.106c-0.897,4.251-1.696,8.521-2.358,12.813
		c-0.431,2.795-0.797,5.6-1.109,8.412c-0.315,2.847-0.57,5.699-0.714,8.559c-0.156,3.061-0.283,6.128-0.114,9.193
		c0.014,0.27-0.002,0.54,0.037,0.806c0.072,0.503-0.094,0.894-0.396,1.296c-0.75,1.004-1.29,2.131-1.826,3.258
		c-1.276,2.676-2.372,5.429-3.439,8.192C25.213,497.975,23.879,501.716,22.596,505.478"/>
	<path fill="#A71D30" d="M95.445,462.046c-36.243,0-65.623,29.38-65.623,65.621c0,36.244,29.379,65.624,65.623,65.624
		s65.622-29.38,65.622-65.624C161.067,491.426,131.688,462.046,95.445,462.046z M91.193,591.574
		c-29.074,0-52.643-23.568-52.643-52.645c0-29.073,23.569-52.643,52.643-52.643c29.074,0,52.642,23.569,52.642,52.643
		C143.834,568.005,120.267,591.574,91.193,591.574z"/>
</g>
<g id="MES_Text">
	<g>
		<path fill="#A71D30" d="M214.315,573.613l11.386-10.703c1.379,1.676,3.088,3.08,5.125,4.214s4.074,1.882,6.111,2.242
			c1.356,0.231,2.67,0.346,3.951,0.346c0.658,0.033,1.282,0.017,1.872-0.05c1.841-0.196,3.336-0.756,4.486-1.676
			c1.281-1.019,1.922-2.3,1.922-3.844c0-1.184-0.592-2.267-1.766-3.253c-1.249-1.052-2.761-1.856-4.551-2.415
			c-1.784-0.559-3.738-0.986-5.874-1.281c-2.949-0.46-5.726-1.273-8.322-2.439c-2.604-1.167-4.953-2.663-7.056-4.486
			s-3.762-4.09-4.971-6.801c-1.206-2.711-1.814-5.709-1.814-8.995c0-3.376,0.731-6.448,2.202-9.218
			c1.469-2.775,3.425-5.018,5.873-6.735c2.44-1.725,5.208-3.055,8.289-3.983c3.089-0.937,6.3-1.405,9.636-1.405
			c4.757,0,9.151,0.846,13.168,2.53c4.024,1.685,7.754,4.625,11.203,8.814l-11.778,9.06c-1.775-1.938-3.869-3.4-6.292-4.386
			c-2.267-0.952-4.379-1.43-6.351-1.43c-0.098,0-0.212,0-0.344,0c-2.029,0.066-3.779,0.658-5.258,1.774
			c-1.47,1.118-2.243,2.679-2.308,4.683c0.164,3.088,3.31,5.308,9.438,6.653c1.998,0.362,3.795,0.748,5.406,1.158
			c1.609,0.411,3.318,0.953,5.125,1.628c1.807,0.681,3.392,1.429,4.756,2.25s2.67,1.848,3.935,3.08
			c1.265,1.233,2.292,2.604,3.081,4.124c0.789,1.545,1.397,3.335,1.824,5.372c0.361,1.684,0.525,3.475,0.492,5.38
			c0,0.428,0,0.871,0,1.332c-0.098,2.702-0.731,5.215-1.897,7.549c-1.166,2.333-2.67,4.338-4.526,5.996
			c-1.856,1.66-3.984,3.089-6.374,4.297c-2.398,1.199-4.905,2.094-7.508,2.686c-2.612,0.592-5.25,0.888-7.902,0.888
			c-4.419,0-8.774-1.108-13.07-3.336C221.338,581.006,217.568,577.802,214.315,573.613z"/>
		<path fill="#A71D30" d="M272.876,562.072v-24.445c0-3.188,0.55-6.137,1.651-8.848c1.1-2.711,2.596-5.011,4.485-6.9
			s4.1-3.499,6.629-4.83c2.53-1.331,5.208-2.316,8.035-2.957c2.825-0.641,5.75-0.962,8.772-0.962c3.023,0,5.956,0.321,8.791,0.962
			c2.833,0.641,5.52,1.626,8.042,2.957c2.522,1.331,4.739,2.948,6.637,4.855c1.906,1.905,3.409,4.204,4.501,6.899
			c1.102,2.694,1.651,5.635,1.651,8.823v24.445c0,3.187-0.55,6.128-1.651,8.823c-1.093,2.694-2.587,4.994-4.477,6.898
			c-1.881,1.906-4.091,3.525-6.613,4.854c-2.521,1.332-5.199,2.317-8.018,2.959c-2.817,0.64-5.741,0.961-8.764,0.961
			c-3.023,0-5.957-0.321-8.799-0.961c-2.842-0.642-5.528-1.627-8.057-2.959c-2.531-1.329-4.749-2.948-6.655-4.854
			c-1.904-1.904-3.409-4.204-4.509-6.898C273.426,568.2,272.876,565.258,272.876,562.072z M290.915,561.94
			c0,2.465,1.15,4.371,3.45,5.733c2.3,1.356,5.028,2.038,8.182,2.038c3.122,0,5.815-0.689,8.083-2.062
			c2.267-1.381,3.4-3.278,3.4-5.71v-24.381c0-1.773-0.583-3.277-1.749-4.525c-1.167-1.249-2.62-2.144-4.362-2.702
			c-1.742-0.559-3.63-0.839-5.667-0.839c-3.023,0-5.668,0.731-7.936,2.185c-2.267,1.463-3.4,3.418-3.4,5.882V561.94z"/>
		<path fill="#A71D30" d="M339.957,562.17v-24.645c0-3.908,0.804-7.441,2.415-10.596c1.61-3.153,3.761-5.718,6.456-7.688
			c2.694-1.973,5.717-3.482,9.069-4.535c3.352-1.051,6.851-1.577,10.498-1.577c2.333,0,4.616,0.271,6.851,0.813
			s4.493,1.397,6.777,2.579c2.284,1.175,4.428,2.875,6.432,5.086c2.004,2.209,3.696,4.838,5.077,7.885l-14.737,5.981
			c-1.149-2.112-2.908-3.657-5.273-4.651c-1.872-0.787-3.729-1.165-5.569-1.133c-0.459-0.032-0.92-0.017-1.381,0.05
			c-2.267,0.263-4.263,1.083-5.988,2.472c-1.726,1.381-2.588,3.146-2.588,5.282v24.71c0,1.643,0.566,3.105,1.701,4.37
			c1.133,1.265,2.554,2.136,4.263,2.596c1.38,0.36,2.793,0.542,4.239,0.542c0.36-0.033,0.723-0.05,1.083-0.05
			c1.84-0.132,3.582-0.756,5.226-1.881c1.642-1.118,2.842-2.611,3.598-4.493l15.771,7.312c-1.446,2.783-3.196,5.231-5.249,7.343
			c-2.054,2.111-4.239,3.788-6.555,5.011c-2.317,1.232-4.642,2.144-6.975,2.728c-2.333,0.592-4.666,0.888-6.999,0.888
			c-3.582,0-7.031-0.518-10.35-1.553c-3.319-1.035-6.309-2.539-8.97-4.511c-2.662-1.971-4.797-4.542-6.407-7.713
			C340.761,569.621,339.957,566.081,339.957,562.17z"/>
		<path fill="#A71D30" d="M400.381,585.583v-71.468h18.039v71.468H400.381z"/>
		<path fill="#A71D30" d="M429.707,585.583v-71.468h49.731v16.856h-31.496v11.188h28.98v15.673h-28.98v10.598h31.496v17.152H429.707
			z"/>
		<path fill="#A71D30" d="M484.809,531.169v-17.152h56.188v17.152h-18.976v54.413h-18.237v-54.413H484.809z"/>
		<path fill="#A71D30" d="M541.54,514.115h20.996l12.889,26.222l12.888-26.222h21.194l-25.039,43.324v28.144H566.43v-28.144
			L541.54,514.115z"/>
	</g>
	<g>
		<path fill="#A71D30" d="M217.515,464.395v-71.467h49.73v16.856h-31.494v11.188h28.98v15.674h-28.98v10.596h31.494v17.152H217.515z
			"/>
		<path fill="#A71D30" d="M276.857,464.395v-71.467h17.152l17.254,30.509l6.062,14.293l0.494-0.099c-0.033,0-0.37-2.053-1.01-6.161
			c-0.646-4.107-0.982-6.161-1.015-6.161v-32.381h18.039v71.467h-18.335l-16.166-28.144l-6.259-14.342l-0.493,0.099l2.317,13.799
			v28.587H276.857z"/>
		<path fill="#A71D30" d="M343.345,440.687v-24.544c0-3.91,0.805-7.435,2.415-10.572c1.611-3.139,3.754-5.676,6.433-7.616
			c2.677-1.938,5.676-3.425,8.994-4.46c3.319-1.035,6.785-1.553,10.4-1.553c2.432,0,4.813,0.271,7.146,0.813
			c2.334,0.542,4.625,1.38,6.876,2.514c2.251,1.133,4.321,2.718,6.21,4.756c1.889,2.037,3.425,4.419,4.608,7.147l-15.131,6.949
			c-0.755-1.84-1.946-3.301-3.573-4.386c-1.626-1.085-3.359-1.66-5.2-1.725c-0.23-0.034-0.476-0.05-0.74-0.05
			c-1.544,0-3.039,0.214-4.485,0.641c-1.709,0.525-3.122,1.462-4.239,2.809s-1.676,2.925-1.676,4.732v24.544
			c0,1.775,0.518,3.319,1.553,4.634c1.034,1.314,2.324,2.259,3.869,2.833c1.544,0.575,3.22,0.864,5.027,0.864
			c1.807,0,3.483-0.297,5.027-0.881c1.544-0.583,2.835-1.519,3.87-2.808c1.034-1.283,1.552-2.81,1.552-4.567v-2.638h-11.385v-15.23
			h28.784v17.793c0,3.976-0.79,7.566-2.366,10.771c-1.577,3.202-3.689,5.799-6.333,7.786c-2.646,1.988-5.627,3.508-8.946,4.559
			c-3.319,1.054-6.801,1.578-10.449,1.578c-3.615,0-7.081-0.524-10.4-1.578c-3.318-1.051-6.317-2.57-8.994-4.559
			c-2.679-1.987-4.822-4.584-6.433-7.786C344.15,448.253,343.345,444.663,343.345,440.687z"/>
		<path fill="#A71D30" d="M407.912,464.395v-71.467h18.038v71.467H407.912z"/>
		<path fill="#A71D30" d="M437.238,464.395v-71.467h17.152l17.254,30.509l6.063,14.293l0.492-0.099
			c-0.033,0-0.369-2.053-1.012-6.161s-0.98-6.161-1.015-6.161v-32.381h18.041v71.467h-18.334l-16.167-28.144l-6.259-14.342
			l-0.494,0.099l2.317,13.799v28.587H437.238z"/>
		<path fill="#A71D30" d="M505.451,464.395v-71.467h49.729v16.856h-31.494v11.188h28.981v15.674h-28.981v10.596h31.494v17.152
			H505.451z"/>
		<path fill="#A71D30" d="M564.792,464.395v-71.467h49.73v16.856h-31.494v11.188h28.981v15.674h-28.981v10.596h31.494v17.152
			H564.792z"/>
		<path fill="#A71D30" d="M624.135,464.395v-71.467h28.537c3.779,0,7.22,0.451,10.324,1.355c3.105,0.903,5.874,2.267,8.306,4.091
			s4.338,4.272,5.718,7.344c1.379,3.073,2.119,6.645,2.218,10.719c0,6.44-1.225,11.6-3.672,15.477
			c-2.449,3.877-5.906,6.522-10.376,7.936l19.468,24.545h-22.475l-16.56-22.723h-3.253v22.723H624.135z M642.371,426.148h10.596
			c1.809,0,3.377-0.403,4.708-1.208c1.332-0.806,2.301-1.815,2.908-3.031s0.911-2.531,0.911-3.943s-0.304-2.727-0.911-3.942
			c-0.607-1.216-1.576-2.227-2.908-3.032c-1.331-0.805-2.899-1.208-4.708-1.208h-10.596V426.148z"/>
		<path fill="#A71D30" d="M689.341,464.395v-71.467h18.039v71.467H689.341z"/>
		<path fill="#A71D30" d="M718.668,464.395v-71.467h17.151l17.254,30.509l6.063,14.293l0.491-0.099
			c-0.032,0-0.369-2.053-1.009-6.161c-0.646-4.107-0.982-6.161-1.016-6.161v-32.381h18.039v71.467H757.31l-16.168-28.144
			l-6.258-14.342l-0.494,0.099l2.316,13.799v28.587H718.668z"/>
		<path fill="#A71D30" d="M785.156,440.687v-24.544c0-3.91,0.805-7.435,2.414-10.572c1.61-3.139,3.755-5.676,6.433-7.616
			c2.679-1.938,5.677-3.425,8.995-4.46c3.318-1.035,6.785-1.553,10.4-1.553c2.432,0,4.813,0.271,7.146,0.813
			c2.333,0.542,4.624,1.38,6.874,2.514c2.251,1.133,4.321,2.718,6.211,4.756c1.889,2.037,3.426,4.419,4.608,7.147l-15.132,6.949
			c-0.756-1.84-1.944-3.301-3.572-4.386c-1.627-1.085-3.359-1.66-5.2-1.725c-0.229-0.034-0.475-0.05-0.739-0.05
			c-1.544,0-3.039,0.214-4.485,0.641c-1.709,0.525-3.121,1.462-4.238,2.809s-1.676,2.925-1.676,4.732v24.544
			c0,1.775,0.518,3.319,1.552,4.634c1.036,1.314,2.325,2.259,3.869,2.833c1.544,0.575,3.22,0.864,5.028,0.864
			c1.808,0,3.483-0.297,5.026-0.881c1.544-0.583,2.835-1.519,3.869-2.808c1.036-1.283,1.554-2.81,1.554-4.567v-2.638h-11.385v-15.23
			h28.781v17.793c0,3.976-0.787,7.566-2.363,10.771c-1.579,3.202-3.69,5.799-6.334,7.786c-2.645,1.988-5.627,3.508-8.946,4.559
			c-3.318,1.054-6.802,1.578-10.448,1.578c-3.615,0-7.082-0.524-10.4-1.578c-3.318-1.051-6.316-2.57-8.995-4.559
			c-2.678-1.987-4.822-4.584-6.433-7.786C785.96,448.253,785.156,444.663,785.156,440.687z"/>
	</g>
	<g>
		<path fill="#A71D30" d="M217.515,343.156v-71.467h18.038l15.033,34.944l15.18-34.944h18.04v71.467h-18.137l0.098-20.603
			l1.086-14.44l-0.591-0.099l-9.416,24.545h-12.37l-9.611-24.545l-0.494,0.099l1.183,14.44v20.603H217.515z"/>
		<path fill="#A71D30" d="M293.368,319.744v-24.643c0-3.909,0.804-7.442,2.415-10.597c1.61-3.154,3.761-5.717,6.457-7.688
			c2.694-1.971,5.716-3.482,9.068-4.535c3.352-1.051,6.852-1.577,10.498-1.577c2.333,0,4.617,0.271,6.852,0.814
			c2.234,0.542,4.493,1.395,6.777,2.579c2.284,1.174,4.427,2.875,6.432,5.084c2.004,2.209,3.697,4.838,5.075,7.885l-14.735,5.981
			c-1.151-2.113-2.908-3.656-5.275-4.65c-1.872-0.79-3.728-1.167-5.568-1.134c-0.46-0.032-0.921-0.016-1.379,0.05
			c-2.269,0.262-4.264,1.084-5.99,2.473c-1.724,1.38-2.586,3.146-2.586,5.282v24.708c0,1.644,0.566,3.106,1.7,4.371
			c1.134,1.265,2.556,2.136,4.264,2.596c1.38,0.361,2.793,0.542,4.239,0.542c0.361-0.034,0.723-0.05,1.084-0.05
			c1.841-0.131,3.583-0.756,5.225-1.881c1.643-1.117,2.843-2.613,3.597-4.492l15.773,7.31c-1.447,2.784-3.195,5.233-5.25,7.344
			c-2.054,2.111-4.239,3.788-6.556,5.011c-2.316,1.233-4.64,2.145-6.972,2.727c-2.334,0.591-4.667,0.888-7,0.888
			c-3.582,0-7.032-0.517-10.35-1.553c-3.319-1.035-6.309-2.538-8.971-4.51c-2.661-1.971-4.797-4.543-6.407-7.713
			C294.172,327.195,293.368,323.654,293.368,319.744z"/>
		<path fill="#A71D30" d="M353.793,343.156v-71.467h18.04l15.032,34.944l15.181-34.944h18.039v71.467h-18.138l0.099-20.603
			l1.084-14.44l-0.593-0.099l-9.413,24.545h-12.372l-9.61-24.545l-0.494,0.099l1.184,14.44v20.603H353.793z"/>
		<path fill="#A71D30" d="M425.112,343.156l24.938-71.467h16.412l25.58,71.467h-19.418l-4.635-14.343h-19.073l-4.437,14.343H425.112
			z M452.958,312.794h10.697l-4.93-20.898h-0.544L452.958,312.794z"/>
		<path fill="#A71D30" d="M492.281,331.187l11.387-10.705c1.38,1.675,3.088,3.082,5.125,4.215c2.038,1.133,4.078,1.881,6.114,2.242
			c1.351,0.231,2.664,0.346,3.945,0.346c0.655,0.032,1.282,0.014,1.872-0.05c1.844-0.198,3.34-0.756,4.487-1.675
			c1.286-1.021,1.924-2.299,1.924-3.845c0-1.182-0.592-2.268-1.769-3.253c-1.245-1.052-2.759-1.855-4.549-2.415
			c-1.784-0.558-3.74-0.985-5.869-1.281c-2.953-0.46-5.724-1.272-8.324-2.439c-2.606-1.167-4.953-2.661-7.058-4.485
			c-2.104-1.824-3.762-4.092-4.969-6.802c-1.21-2.71-1.814-5.709-1.814-8.995c0-3.376,0.732-6.449,2.199-9.216
			c1.473-2.777,3.427-5.02,5.871-6.736c2.441-1.726,5.208-3.058,8.295-3.983c3.085-0.937,6.298-1.406,9.633-1.406
			c4.764,0,9.151,0.846,13.171,2.53c4.021,1.684,7.756,4.625,11.201,8.813l-11.78,9.062c-1.77-1.939-3.869-3.4-6.297-4.386
			c-2.263-0.951-4.375-1.43-6.346-1.43c-0.096,0-0.213,0-0.346,0c-2.026,0.066-3.78,0.659-5.254,1.775
			c-1.475,1.118-2.242,2.678-2.31,4.682c0.165,3.089,3.311,5.307,9.435,6.654c1.995,0.361,3.803,0.748,5.41,1.158
			c1.608,0.411,3.317,0.953,5.125,1.627c1.808,0.682,3.391,1.43,4.751,2.25c1.364,0.822,2.678,1.85,3.943,3.082
			c1.26,1.231,2.287,2.603,3.078,4.124c0.787,1.543,1.396,3.334,1.823,5.373c0.361,1.684,0.524,3.475,0.49,5.379
			c0,0.428,0,0.872,0,1.331c-0.098,2.702-0.73,5.218-1.896,7.55c-1.16,2.332-2.673,4.337-4.527,5.996
			c-1.855,1.659-3.977,3.088-6.377,4.295c-2.396,1.201-4.896,2.096-7.507,2.687c-2.609,0.591-5.241,0.888-7.9,0.888
			c-4.418,0-8.771-1.11-13.067-3.335C499.305,338.58,495.538,335.376,492.281,331.187z"/>
		<path fill="#A71D30" d="M548.33,288.743V271.59h56.188v17.152h-18.978v54.413h-18.234v-54.413H548.33z"/>
		<path fill="#A71D30" d="M611.615,343.156v-71.467h49.729v16.857H629.85v11.188h28.98v15.673h-28.98v10.596h31.493v17.153H611.615z
			"/>
		<path fill="#A71D30" d="M670.957,343.156v-71.467h28.536c3.778,0,7.22,0.453,10.326,1.356c3.102,0.903,5.872,2.268,8.305,4.09
			c2.433,1.824,4.338,4.272,5.717,7.344c1.379,3.073,2.12,6.646,2.218,10.721c0,6.44-1.224,11.598-3.673,15.476
			c-2.445,3.877-5.905,6.523-10.375,7.934l19.469,24.547h-22.476l-16.56-22.721h-3.251v22.721H670.957z M689.193,304.909h10.593
			c1.808,0,3.379-0.403,4.71-1.208c1.327-0.805,2.3-1.816,2.906-3.031c0.608-1.217,0.911-2.531,0.911-3.944
			s-0.303-2.726-0.911-3.942c-0.606-1.215-1.579-2.226-2.906-3.03c-1.331-0.806-2.902-1.208-4.71-1.208h-10.593V304.909z"/>
	</g>
</g>
</svg>
